<svg id="Capa_1" enable-background="new 0 0 512 512" height="512" viewBox="0 0 512 512" width="512" xmlns="http://www.w3.org/2000/svg"><path d="m421 333.197c24.05 0 46.794-9.327 64.043-26.264 17.384-17.069 26.957-39.705 26.957-63.736s-9.573-46.667-26.957-63.736c-13.878-13.626-31.312-22.327-50.121-25.208-6.72-43.03-44.036-76.056-88.922-76.056-16.9 0-33.14 4.674-47.22 13.407-8.722-14.6-20.455-27.206-34.586-37.044-20.075-13.976-43.656-21.363-68.194-21.363-66.168 0-120 53.832-120 120 0 .411.004.82.012 1.226-18.402 3.042-35.44 11.67-49.054 25.038-17.384 17.069-26.958 39.704-26.958 63.736s9.574 46.667 26.958 63.736c17.248 16.936 39.992 26.264 64.042 26.264h38.787l-49.109 49.109 60 30-45.284 45.284 21.213 21.213 74.716-74.716-60-30 40.891-40.891h77.574l-49.109 49.109 60 30-45.284 45.284 21.213 21.213 74.716-74.716-60-30 40.891-40.891h77.574l-49.109 49.109 60 30-45.284 45.284 21.213 21.213 74.716-74.716-60-30 40.891-40.891h8.784zm-391-90c0-33.084 27.364-60 61-60h18.831l-2.687-18.622c-.588-4.029-1.144-7.834-1.144-11.378 0-49.626 40.374-90 90-90 37.062 0 69.855 22.391 83.543 57.042l8.314 21.048 16.147-15.857c11.315-11.113 26.229-17.233 41.995-17.233 33.084 0 60 26.916 60 60v15h15c33.636 0 61 26.916 61 60s-27.364 60-61 60h-329.999c-33.636 0-61-26.916-61-60z"/></svg>